<svg xmlns="http://www.w3.org/2000/svg" viewBox="0 0 100 100">
    <path id="id" d="m 75.6 27 c 3.2 -3.2 4.9621 -7.4542 4.9621 -11.9788 c 0 -4.5247 -1.7626 -8.7788 -4.9615 -11.9788 c -1.2733 -1.2744 -3.3394 -1.2739 -4.6132 0 c -1.2744 1.2739 -1.2744 3.3394 -0.0011 4.6132 c 1.9678 1.9678 3.0515 4.5835 3.0515 7.3661 c 0 2.7815 -1.0838 5.3973 -3.0505 7.3651 l -1.1707 1.1702 c 0 0 -0.0005 0.0005 -0.0005 0.0005 l -1.6497 -1.6502 c -0.9909 -0.9904 -2.3339 -1.5466 -3.7346 -1.5466 s -2.7437 0.5562 -3.7336 1.5466 l -2.7734 2.7729 c -0.3056 0.3067 -0.7727 0.3866 -1.1637 0.1993 c -5.0085 -2.3965 -10.5316 -3.6607 -16.2486 -3.6607 c -10.0678 0 -19.5329 3.9204 -26.6522 11.0392 c -14.6956 14.6961 -14.6956 38.6073 0 53.3023 c 7.1194 7.1199 16.5839 11.0403 26.6517 11.0403 c 10.0672 0 19.5334 -3.9209 26.6517 -11.0403 c 11.5792 -11.5792 14.0335 -28.8808 7.3656 -42.8873 c -0.1868 -0.3904 -0.1064 -0.8559 0.1998 -1.1626 l 2.7864 -2.7869 c 2.0612 -2.0623 2.0612 -5.4054 0 -7.4677 l -3.0861 -3.0856 c 0.0005 0 0.0005 0 0.0005 -0.0005 l 1.1702 -1.1696 z m -13.0496 53.9482 c -5.8865 5.886 -13.7138 9.1282 -22.0385 9.1282 c -8.3246 0 -16.1514 -3.2422 -22.0379 -9.1282 c -12.1516 -12.1522 -12.1516 -31.9248 0 -44.0764 c 5.8871 -5.886 13.7138 -9.1282 22.039 -9.1282 s 16.1519 3.2416 22.0385 9.1282 c 12.1495 12.1516 12.1495 31.9237 -0.0011 44.0764 z"/>
</svg>
