<svg xmlns="http://www.w3.org/2000/svg" viewBox="0 0 100 100">
    <path id="id" d="m 58 98 a 6.3294 5.0845 0 0 1 -0.6704 -5.3538 c 1.3719 -2.1415 1.9097 -4.5899 1.559 -7.0006 a 16.4159 13.1872 0 0 0 -2.0812 -4.8779 a 15.8001 12.6926 0 0 0 -4.217 -3.7946 a 30.8675 24.7965 0 0 1 -11.5442 -14.2893 c -13.3136 14.0201 -8.208 21.9787 -1.8318 28.9919 a 5.8305 4.6838 0 0 1 -0.1091 5.6418 a 6.7815 5.4477 0 0 1 -3.0712 1.7721 a 6.5321 5.2473 0 0 1 -3.7259 0.144 c -8.6133 -1.6907 -16.7199 -4.9092 -22.2153 -10.0376 a 36.5266 29.3426 0 0 1 -7.0621 -9.737 a 37.501 30.1253 0 0 1 -2.05 -11.2524 s -1.0367 -15.4227 22.1139 -30.5323 c 0 0 27.3599 -18.6475 17.8658 -32.4359 a 4.8406 3.8885 0 0 1 0.873 -4.0889 a 4.3495 3.4941 0 0 1 4.8562 -0.9205 l 1.138 0.3632 a 59.4746 47.7772 0 0 1 23.0727 21.9161 c 4.521 8.8479 4.4898 19.161 1.4342 28.3469 c 2.5333 -1.8284 4.6457 -4.0138 6.2437 -6.4684 l 0.2261 -0.4008 c 1.5434 -2.9869 6.3996 -2.0351 8.2236 -0.0814 c 0.6704 0.8579 17.8658 20.933 8.6289 37.8711 a 42.9963 34.5398 0 0 1 -14.3425 12.6926 a 47.759 38.3657 0 0 1 -16.6654 5.5917 a 6.5009 5.2223 0 0 1 -3.6792 -0.2379 a 6.7581 5.4289 0 0 1 -2.9698 -1.8159 z m -13.7657 -48.5974 a 3.2894 2.6425 0 0 1 4.2872 0.9142 c 0.3118 0.3694 0.5145 0.789 0.5846 1.2398 l 0.3508 2.1854 c 0.1559 3.1998 0.1091 6.5435 1.6603 9.618 c 1.6057 3.1559 4.1001 5.9487 7.2648 8.1278 a 23.8522 19.161 0 0 1 9.042 8.9042 c 1.7149 3.5316 1.9487 7.4515 0.6548 11.1021 a 32.1381 25.8172 0 0 0 10.8348 -4.7401 l 0.8029 -0.526 c 2.6191 -1.7345 4.7782 -3.9011 6.3372 -6.3682 c 1.5668 -2.4609 2.5099 -5.1659 2.7594 -7.9462 c 0.5067 -6.4183 -2.2137 -12.8616 -6.4463 -18.6099 c -1.9331 2.2542 -4.599 4.0013 -7.6779 5.0344 c -1.9253 0.6575 -3.9676 1.0645 -6.0488 1.1897 a 6.1735 4.9593 0 0 1 -3.4219 -0.6262 a 6.4853 5.2098 0 0 1 -2.5021 -2.0539 a 6.4307 5.1659 0 0 1 -0.2728 -4.5648 c 3.2115 -6.0864 4.2092 -12.8366 2.8451 -19.3926 a 45.7869 36.7815 0 0 0 -12.7991 -19.7871 c -1.216 13.8072 -18.8401 26.6625 -22.4569 29.4302 a 27.5703 22.1478 0 0 1 -1.746 1.2148 c -18.9103 12.3043 -17.6163 23.5129 -17.6163 24.0075 a 28.6694 23.0307 0 0 0 3.5778 12.7928 c 2.8451 4.0388 6.9374 7.3701 11.8481 9.6431 c -5.6668 -10.0063 -5.6668 -22.0163 15.2467 -39.2361 l 2.8997 -1.5654 z"/>
</svg>
