<svg xmlns="http://www.w3.org/2000/svg" viewBox="0 0 100 100">
    <path
            id="id"
            d="
                m 0 0
                h 100
                v 100
                h -100
                v -100
                m 0 12.5 h 100 m 0 12.5 h -100 m 0 12.5 h 100 m 0 12.5 h -100 m 0 12.5 h 100 m 0 12.5 h -100 m 0 12.5 h 100
                m -20 12.5 v -12.5 m -20 0 v 12.5 m -20 0 v -12.5 m -20 0 v 12.5
                m -10 -12.5 v -12.5 m 20 0 v 12.5 m 20 0 v -12.5 m 20 0 v 12.5 m 20 0 v -12.5
                m -10 0 v -12.5 m -20 0 v 12.5 m -20 0 v -12.5 m -20 0 v 12.5
                m -10 -12.5 v -12.5 m 20 0 v 12.5 m 20 0 v -12.5 m 20 0 v 12.5 m 20 0 v -12.5
                m -10 0 v -12.5 m -20 0 v 12.5 m -20 0 v -12.5 m -20 0 v 12.5
                m -10 -12.5 v -12.5 m 20 0 v 12.5 m 20 0 v -12.5 m 20 0 v 12.5 m 20 0 v -12.5
                m -10 0 v -12.5 m -20 0 v 12.5 m -20 0 v -12.5 m -20 0 v 12.5
                m -10 -12.5 v -12.5 m 20 0 v 12.5 m 20 0 v -12.5 m 20 0 v 12.5 m 20 0 v -12.5
            "
    />
</svg>
