<svg
  height="200px"
  width="200px"
  xmlns="http://www.w3.org/2000/svg"
  viewBox="0 0 512 512"
  fill="#000000"
>
  <path d="m 51.2 12.3863 v -12.3863 h -16.5151 h -1.6515 h -14.8636 h -1.6515 h -16.5151 v 10.7324 h -0.0032 v 12.3863 h 0.0032 v 9.0833 h -0.0032 v 10.7348 h 8.2608 v 0.0024 h 16.5151 h 1.6515 h 16.5151 v -0.0024 h 8.2543 v -9.0809 h 0.0032 v -12.3863 h -0.0032 v -9.0833 h 0.0032 z m -33.0302 -10.7348 h 14.8636 v 9.0833 h -14.8636 v -9.0833 z m 23.1212 10.7348 v 9.0833 h -14.8636 v -9.0833 h 14.8636 z m -16.5152 0 v 9.0833 h -14.8635 v -9.0833 h 14.8635 z m -23.1211 -10.7348 h 14.8636 v 9.0833 h -14.8636 v -9.0833 z m -0.0032 10.7324 h 6.606 v 9.0833 h -6.606 v -9.0833 z m 6.6061 28.9014 h -6.606 v -7.4318 h 6.606 v 7.4318 z m -6.6029 -9.0809 v -9.0833 h 14.8636 v 9.0833 h -14.8636 z m 23.1211 9.0833 h -14.8635 v -7.4318 h 14.8636 v 7.4318 z m -6.606 -9.0833 v -9.0833 h 14.8636 v 9.0833 h -14.8636 z m 23.1212 9.0833 h -14.8636 v -7.4318 h 14.8636 v 7.4318 z m 8.2543 -0.0024 h -6.606 v -7.4318 h 6.606 v 7.4318 z m 0.0032 -9.0809 h -14.8636 v -9.0833 h 14.8636 v 9.0833 z m -6.6093 -10.7372 v -9.0833 h 6.606 v 9.0833 h -6.606 z m 6.6093 -10.7324 h -14.8636 v -9.0833 h 14.8636 v 9.0833 z"></path>
</svg>
